<svg xmlns="http://www.w3.org/2000/svg" viewBox="0 0 180 180">
  <path
    fill="#E76F55"
    d="M65.5 164.6C31.7 151.3 12.4 121.8 14.1 86 15.7 51.9 43 21.4 77.6 15.2c50.4-9.1 95.9 32.5 91.2 83.4-4.4 49-52.9 81.3-100.5 66.9-.8-.3-1.6-.5-2.8-.9zm8.3-47.2c0 5.9 1.1 12.2-6.1 15.4-.9.4-1.7 3.4-1.2 4.3 1 1.3 3 2.7 4.7 2.7 9 .3 18 .3 26.9 0 1.7 0 4.4-1.7 4.7-3.1.4-1.4-1.6-3.4-2.6-5.1-1.5-2.5-3.9-5-4.2-7.7-.5-7.3-.2-14.6-.2-22V85.8c3.9 0 7.1.1 10.2 0 3.1-.1 5-1.7 5-5s-1.8-4.8-5-4.8H95.7c.7-7.9-1.6-15.3 3-22.2 1.4 2 2.1 4.1 2.8 6.2 1.8 5.4 6 7.4 11.4 5.4 5-1.8 8.2-6.8 7.7-12.1-.5-5.5-4.7-9.7-10.6-10.2-3.6-.2-7.4-.2-11 .1-13.6 1.4-23.5 11.4-25.1 25-.3 2.4-.5 4.9-.8 7.2-3.8 1.6-10.3-1.7-10.6 5-.2 7.8 7.2 4.1 11.3 6.1v30.9z"
  />
</svg>
